<svg width="735" height="558" viewBox="0 0 735 558" fill="none" xmlns="http://www.w3.org/2000/svg">
<path d="M610.928 150.795C630.824 189.183 642.07 232.778 642.07 279C642.07 433.087 517.157 558 363.07 558C317.673 558 274.811 547.154 236.927 527.917L307.165 457.094C324.815 462.629 343.593 465.616 363.07 465.616C466.135 465.616 549.685 382.065 549.685 279C549.685 258.979 546.531 239.694 540.694 221.615L610.928 150.795ZM363.07 0C409.317 0 452.935 11.2559 491.337 31.1724L421.936 101.862C403.43 95.7158 383.639 92.3841 363.07 92.3841C260.004 92.3841 176.454 175.935 176.454 279C176.454 300.777 180.184 321.683 187.04 341.114L117.642 411.8C96.2297 372.312 84.0696 327.076 84.0696 279C84.0696 124.913 208.982 0 363.07 0Z" fill="white"/>
<path d="M734.454 0L181.073 558H0L547.838 0H734.454ZM65.5927 508.113H214.095L667.937 49.8874H514.888L65.5927 508.113Z" fill="white"/>
</svg>
